<svg width="220" height="81" viewBox="0 0 220 81" fill="none" xmlns="http://www.w3.org/2000/svg" role="img" aria-label="Bolalar Kontentini Rivojlantirish Markazi">
<path fill-rule="evenodd" clip-rule="evenodd" d="M166.639 11.1406C168.788 11.6463 169.041 13.0369 168.409 14.9333C166.512 14.3012 166.386 13.5427 166.639 11.1406ZM192.809 45.0228L190.533 44.7699C190.281 43.6321 190.154 43.2528 190.407 42.2414C191.292 42.3678 190.533 41.8621 191.798 43.3792C192.303 44.1378 192.43 44.2642 192.809 45.0228ZM161.329 34.9087C163.731 34.9087 162.593 34.9087 163.352 34.5294L163.605 36.9315C163.352 37.0579 163.099 37.1843 162.72 37.0579C162.846 36.8051 162.846 36.9315 162.972 36.5522C162.593 36.2994 161.582 35.4144 161.329 34.9087ZM179.155 2.92285C172.834 2.92285 166.892 4.56639 161.708 7.34777C161.708 8.10632 161.708 8.99131 161.835 9.87629C165.754 7.72705 165.627 5.70425 171.064 7.09494L169.547 7.85346C169.167 7.97989 168.914 8.10634 168.282 8.23277C165.754 9.24418 164.11 11.8991 161.455 13.9219C161.582 16.8297 163.099 28.4609 163.225 30.2309C164.237 30.3573 164.995 31.3688 164.363 32.2537C163.984 32.8859 164.237 32.633 164.49 33.0123C164.237 33.7709 163.605 33.6444 163.605 34.5294C163.605 35.0351 163.731 36.173 163.857 36.6787C164.49 36.5522 164.363 36.173 165.122 36.173V37.1844C171.569 37.0579 169.547 36.1729 170.305 34.403C170.937 34.403 170.811 34.403 171.19 35.0351C171.822 36.2994 171.443 36.173 171.949 36.8051C172.202 37.1844 172.328 37.3108 172.202 37.8165C171.696 37.9429 171.443 38.3222 170.811 38.1957C170.179 38.0693 169.799 38.1958 169.294 38.4486C167.018 39.2072 168.409 38.9543 166.133 39.0807C166.26 39.7129 168.156 40.7243 168.914 41.1036C169.673 41.4828 170.432 40.8507 171.443 40.2186C172.581 39.46 172.581 40.5978 172.075 41.3564C171.822 41.7357 171.696 41.9886 171.317 42.3678C170.811 42.8735 171.064 42.9999 170.684 43.3792C170.432 43.6321 170.052 43.8849 169.673 43.5057C169.041 43.1264 169.041 42.7471 167.65 42.2414C165.375 41.4828 166.386 41.1036 165.375 41.6093C165.501 42.115 165.627 41.9886 165.754 42.3678C165.122 42.7471 161.835 44.8964 161.202 44.8964C161.076 44.6435 160.95 44.0114 160.823 43.7585C159.685 43.7585 158.421 44.3907 157.03 44.2642C157.03 43.7585 157.536 43.5057 157.915 42.2414L158.295 39.8393C157.283 39.8393 157.536 40.345 157.283 38.9543C157.157 38.4486 157.03 37.6901 157.03 37.1844C157.03 36.5522 157.03 35.7936 157.03 35.0351C157.03 34.403 157.03 34.7823 156.778 34.2766C156.525 34.0237 156.778 34.0237 156.778 33.7708C155.008 33.7708 154.755 34.5294 152.732 33.6444C150.962 32.8859 150.962 32.3801 150.33 31.3687C149.698 31.3687 149.318 31.748 149.445 32.5066C150.203 33.0123 150.836 32.8859 151.088 34.0237C151.341 34.9087 151.088 36.0465 150.33 36.2994C150.33 36.2994 150.33 36.2994 150.33 36.173C150.203 35.6673 150.33 35.6672 150.203 35.288C149.951 35.7937 149.698 36.4258 148.56 36.2994C147.422 36.1729 149.698 35.9201 148.054 35.0351C146.916 34.403 146.79 32.633 147.422 31.3687C147.928 30.3573 148.433 30.2309 149.698 30.1045C149.445 29.8516 149.318 29.8516 148.939 29.5988C148.56 29.4724 148.307 29.4724 148.054 29.2195C148.433 29.0931 148.939 29.4723 149.445 29.4723C149.192 28.4609 149.571 28.3345 150.203 29.0931C150.456 28.5874 150.456 27.9553 150.836 27.3231C151.215 26.4381 152.226 25.3003 153.111 24.7946C153.491 24.6682 153.364 24.7946 153.87 24.5417L154.755 24.1625L151.973 16.5769C151.341 16.5769 150.836 16.7033 150.456 16.7033C145.652 22.8982 142.744 30.7366 142.744 39.2072C142.744 42.6207 143.25 46.0342 144.135 49.1948L144.261 49.5741C144.388 50.2062 144.641 50.8384 144.894 51.4705C148.181 51.0912 153.238 44.7699 155.893 47.172C158.421 49.3213 156.398 52.2291 161.961 51.5969C159.559 50.9648 158.295 51.3441 157.915 48.5627L162.467 48.8156H167.903C167.903 47.6777 168.029 47.2984 168.029 46.4134V44.8964C168.029 44.8964 168.029 44.7699 168.029 44.6435C168.029 44.6435 168.03 44.5171 168.156 44.3907L168.788 45.2756L169.42 46.5399L172.202 44.8964C171.317 46.0342 171.317 47.0456 171.822 47.5513V47.4249L172.202 47.9306C172.328 48.057 172.581 48.1834 172.707 48.1834C174.224 47.6777 177.891 47.5513 179.534 47.4249L187.12 46.7927C187.752 45.6549 187.373 45.7813 187.12 44.3907C186.361 40.2186 189.143 38.4486 189.143 36.5522C186.993 34.2766 183.58 36.8051 185.097 30.7366C185.982 27.3231 189.901 26.5645 192.177 28.7138C192.177 29.0931 191.671 29.2195 192.177 29.978C192.556 30.4837 192.935 30.3573 193.568 30.6102C194.832 36.5522 192.43 32.5066 191.798 35.5408C191.671 36.4258 191.292 37.8165 191.418 38.7015C191.671 40.2186 193.315 43.6321 194.2 44.0114C194.958 44.3906 195.97 44.3907 196.223 45.6549C196.602 47.0456 194.326 51.9762 195.338 52.6084C196.349 53.2405 195.97 52.2291 196.728 53.2405C196.728 53.2405 196.602 53.2405 196.602 53.3669C196.475 53.7462 195.464 53.3669 195.211 53.3669C194.579 53.114 194.2 52.8612 193.82 52.4819C194.073 51.3441 194.453 47.9306 194.2 46.6663C193.694 46.5399 193.568 46.4135 192.809 46.5399C192.556 47.2984 192.303 47.8042 191.924 48.1834C192.303 48.5627 192.556 49.0684 192.935 49.5741C192.935 51.0912 194.073 53.2405 194.073 55.3897C194.073 58.0447 190.533 69.2966 189.648 71.5723C189.143 72.7101 188.637 73.5951 188.005 74.4801C204.187 70.5609 216.071 56.0218 216.071 38.8279C215.819 19.3582 199.383 2.92285 179.155 2.92285ZM151.973 16.9562C152.479 16.9562 153.111 16.8297 153.87 16.8297C157.157 16.5769 159.433 15.4391 161.076 14.0484L161.202 15.0598C161.202 15.9448 161.961 22.1397 162.087 23.5303C162.087 24.1625 162.972 30.6102 162.846 30.863C162.72 31.3687 162.593 30.4837 162.846 31.8744C162.087 32.1273 162.593 32.633 161.329 32.2537C161.076 32.1273 160.697 32.0009 160.57 32.0009C160.191 32.0009 160.065 32.0009 159.559 32.0009C159.559 30.7366 160.95 30.8631 160.57 29.7252C160.444 29.4724 160.318 29.3459 160.318 29.2195C160.191 28.9667 160.318 28.7138 160.065 28.461C159.812 28.0817 159.812 28.4609 159.559 28.0817C159.433 27.9552 159.433 27.7024 159.306 27.4495C159.053 27.4495 158.674 27.4495 158.421 27.4495C158.295 27.4495 158.295 27.3231 158.168 27.3231C157.915 27.0703 158.295 27.4495 158.042 27.1967L157.915 27.0703C157.283 26.3117 157.03 25.4267 156.272 25.0474C155.766 24.7946 155.387 24.6682 154.755 24.6682L151.973 16.9562ZM154.123 12.7841C154.375 12.5313 154.755 12.2784 155.008 12.0256C155.008 12.2784 155.134 12.5313 155.134 12.7841H154.123ZM156.525 10.6349C157.283 10.1292 158.042 9.49704 158.8 8.99133C158.674 10.382 158.674 10.5084 157.663 11.267C157.157 11.1406 156.778 10.8877 156.525 10.6349ZM168.029 10.0027C169.041 12.4048 170.937 12.9105 174.098 12.4048C174.098 9.49701 170.179 8.35918 168.029 10.0027Z" fill="url(#paint0_linear_9_503)"/>
<path fill-rule="evenodd" clip-rule="evenodd" d="M23.651 59.0557C24.1567 59.1821 24.536 59.435 24.7889 59.8143C25.0417 60.1935 25.1681 60.6993 25.1681 61.205C25.1681 61.9635 24.9153 62.5956 24.2831 62.9749C23.651 63.3542 22.7661 63.6071 21.6282 63.6071H17.0769V54.7572H21.3754C22.5132 54.7572 23.2717 55.0101 23.9039 55.3894C24.536 55.7686 24.7889 56.4008 24.7889 57.0329C24.7889 57.4122 24.6624 57.7915 24.536 58.1707C24.4096 58.55 24.0303 58.8029 23.651 59.0557ZM19.2261 56.2744V58.4236H21.249C21.7547 58.4236 22.1339 58.2972 22.3867 58.1707C22.6396 58.0443 22.7661 57.7915 22.7661 57.4122C22.7661 57.0329 22.6396 56.78 22.3867 56.6536C22.1339 56.5272 21.7547 56.4008 21.249 56.4008H19.2261V56.2744ZM21.6282 62.09C22.1339 62.09 22.6396 61.9635 22.8925 61.8371C23.1453 61.7107 23.2717 61.3314 23.2717 60.9521C23.2717 60.1935 22.7661 59.8143 21.6282 59.8143H19.2261V61.9635H21.6282V62.09ZM31.2366 63.8599C30.3516 63.8599 29.4666 63.6071 28.7081 63.2278C27.9495 62.8485 27.4438 62.3428 26.9381 61.5842C26.5589 60.8257 26.306 60.0671 26.306 59.1821C26.306 58.2972 26.5589 57.5386 26.9381 56.7801C27.3174 56.0215 27.9495 55.5158 28.7081 55.1365C29.4666 54.7572 30.2252 54.5044 31.2366 54.5044C32.1216 54.5044 33.0065 54.7572 33.7651 55.1365C34.5237 55.5158 35.0294 56.0215 35.5351 56.7801C35.9144 57.5386 36.1672 58.2972 36.1672 59.1821C36.1672 60.0671 35.9144 60.8257 35.5351 61.5842C35.1558 62.3428 34.5237 62.8485 33.7651 63.2278C32.8801 63.6071 32.1216 63.8599 31.2366 63.8599ZM31.2366 62.09C31.7423 62.09 32.248 61.9635 32.6273 61.7107C33.0066 61.4578 33.3859 61.0785 33.6387 60.6993C33.8916 60.32 34.018 59.8143 34.018 59.1821C34.018 58.6764 33.8916 58.1708 33.6387 57.665C33.3859 57.2858 33.0066 56.9065 32.6273 56.6536C32.248 56.4008 31.7423 56.2744 31.2366 56.2744C30.7309 56.2744 30.2252 56.4008 29.8459 56.6536C29.4666 56.9065 29.0874 57.2858 28.8345 57.665C28.5817 58.0443 28.4553 58.55 28.4553 59.1821C28.4553 59.6878 28.5817 60.1936 28.8345 60.6993C29.0874 61.0785 29.4666 61.4578 29.8459 61.7107C30.2252 61.9635 30.6044 62.09 31.2366 62.09ZM37.5579 54.7572H39.5808V61.9635H44.0057V63.6071H37.4315V54.7572H37.5579ZM51.212 61.7107H47.0399L46.2813 63.6071H44.1321L48.0513 54.7572H50.0741L53.9933 63.6071H51.8441L51.212 61.7107ZM50.5798 60.1936L49.1891 56.7801L47.7985 60.1936H50.5798ZM55.1312 54.7572H57.1539V61.9635H61.5789V63.6071H55.0048V54.7572H55.1312ZM68.6588 61.7107H64.4867L63.7281 63.6071H61.5789L65.4981 54.7572H67.5209L71.4402 63.6071H69.2909L68.6588 61.7107ZM68.0266 60.1936L66.6359 56.7801L65.2453 60.1936H68.0266ZM78.2671 63.6071L76.4972 61.0785H76.3707H74.6008V63.6071H72.578V54.7572H76.3707C77.1293 54.7572 77.8879 54.8837 78.3936 55.1365C79.0257 55.3894 79.405 55.7686 79.7843 56.2744C80.0371 56.7801 80.29 57.2858 80.29 58.0443C80.29 58.6764 80.1635 59.3086 79.7843 59.8143C79.405 60.32 79.0257 60.6992 78.3936 60.9521L80.4164 63.8599H78.2671V63.6071ZM78.1407 58.0443C78.1407 57.5386 78.0143 57.1593 77.635 56.9065C77.2557 56.6536 76.8765 56.5272 76.2443 56.5272H74.6008V59.6878H76.2443C76.8765 59.6878 77.3821 59.5614 77.635 59.3086C78.0143 58.8029 78.1407 58.4236 78.1407 58.0443ZM88.7605 60.1936L87.6227 61.4578V63.7335H85.5998V54.8837H87.6227V59.0557L91.5419 54.8837H93.8175L90.1512 58.8029L94.0704 63.7335H91.6684L88.7605 60.1936ZM98.8746 63.8599C97.9896 63.8599 97.1046 63.6071 96.3461 63.2278C95.5875 62.8485 95.0818 62.3428 94.5761 61.5842C94.1969 60.8257 93.944 60.0671 93.944 59.1821C93.944 58.2972 94.1969 57.5386 94.5761 56.7801C94.9554 56.0215 95.5875 55.5158 96.3461 55.1365C97.1046 54.7572 97.8632 54.5044 98.8746 54.5044C99.7596 54.5044 100.645 54.7572 101.403 55.1365C102.162 55.5158 102.667 56.0215 103.173 56.7801C103.552 57.5386 103.805 58.2972 103.805 59.1821C103.805 60.0671 103.552 60.8257 103.173 61.5842C102.794 62.3428 102.162 62.8485 101.403 63.2278C100.645 63.6071 99.7596 63.8599 98.8746 63.8599ZM98.8746 62.09C99.3803 62.09 99.886 61.9635 100.265 61.7107C100.645 61.4578 101.024 61.0785 101.277 60.6993C101.53 60.32 101.656 59.8143 101.656 59.1821C101.656 58.6764 101.53 58.1708 101.277 57.665C101.024 57.2858 100.645 56.9065 100.265 56.6536C99.886 56.4008 99.3803 56.2744 98.8746 56.2744C98.3689 56.2744 97.8632 56.4008 97.4839 56.6536C97.1046 56.9065 96.7254 57.2858 96.4725 57.665C96.2197 58.0443 96.0933 58.55 96.0933 59.1821C96.0933 59.6878 96.2197 60.1936 96.4725 60.6993C96.7254 61.0785 97.1046 61.4578 97.4839 61.7107C97.8632 61.9635 98.3689 62.09 98.8746 62.09ZM113.414 54.7572V63.6071H111.77L107.345 58.1707V63.6071H105.322V54.7572H106.966L111.391 60.1936V54.7572H113.414ZM117.333 56.4008H114.425V54.7572H122.137V56.4008H119.229V63.6071H117.206V56.4008H117.333ZM130.228 61.9635V63.6071H123.401V54.7572H130.102V56.4008H125.424V58.2972H129.596V59.9407H125.424V61.9635H130.228ZM140.09 54.7572V63.6071H138.446L134.021 58.1707V63.6071H131.998V54.7572H133.642L138.067 60.1936V54.7572H140.09ZM144.009 56.4008H141.227V54.7572H148.939V56.4008H146.032V63.6071H144.009V56.4008ZM149.951 54.7572H151.974V63.6071H149.951V54.7572ZM162.341 54.7572V63.6071H160.697L156.272 58.1707V63.6071H154.249V54.7572H155.893L160.318 60.1936V54.7572H162.341ZM164.49 54.7572H166.513V63.6071H164.49V54.7572ZM9.61774 77.6404L7.84774 75.1118H7.72134H5.95135V77.6404H3.92856V68.7905H7.72134C8.4799 68.7905 9.23843 68.9169 9.74413 69.1698C10.3763 69.4227 10.7556 69.802 11.1349 70.3077C11.3877 70.8134 11.6405 71.3191 11.6405 72.0776C11.6405 72.8362 11.5141 73.3419 11.1349 73.8476C10.7556 74.3533 10.3763 74.7326 9.74413 74.9854L11.767 77.8932H9.61774V77.6404ZM9.61774 71.9512C9.61774 71.4455 9.49128 71.0662 9.112 70.8134C8.73272 70.5605 8.35347 70.4341 7.72134 70.4341H6.07782V73.5947H7.72134C8.35347 73.5947 8.85915 73.4683 9.112 73.2155C9.36485 72.8362 9.61774 72.4569 9.61774 71.9512ZM13.2841 68.7905H15.3069V77.6404H13.2841V68.7905ZM25.9267 68.7905L22.134 77.6404H20.1111L16.3183 68.7905H18.594L21.249 75.1118L24.0304 68.7905H25.9267ZM30.8573 77.7668C29.9723 77.7668 29.0874 77.514 28.3288 77.1347C27.5702 76.7554 27.0646 76.2497 26.5589 75.4911C26.1796 74.7326 25.9267 73.974 25.9267 73.089C25.9267 72.204 26.1796 71.4455 26.5589 70.6869C26.9382 69.9284 27.5702 69.4227 28.3288 69.0434C29.0874 68.6641 29.8459 68.4113 30.8573 68.4113C31.7423 68.4113 32.6273 68.6641 33.3858 69.0434C34.1444 69.4227 34.6501 69.9284 35.1558 70.6869C35.5351 71.4455 35.788 72.204 35.788 73.089C35.788 73.974 35.5351 74.7326 35.1558 75.4911C34.7766 76.2497 34.1444 76.7554 33.3858 77.1347C32.6273 77.6404 31.8687 77.7668 30.8573 77.7668ZM30.8573 75.9968C31.363 75.9968 31.8688 75.8704 32.2481 75.6175C32.6273 75.3647 33.0066 74.9854 33.2594 74.6061C33.5123 74.2269 33.6387 73.7211 33.6387 73.089C33.6387 72.5833 33.5123 72.0776 33.2594 71.5719C33.0066 71.1926 32.6273 70.8133 32.2481 70.5605C31.8688 70.3076 31.363 70.1812 30.8573 70.1812C30.3516 70.1812 29.8459 70.3076 29.4667 70.5605C29.0874 70.8133 28.7081 71.1926 28.4553 71.5719C28.2024 71.9512 28.0759 72.4569 28.0759 73.089C28.0759 73.5947 28.2024 74.1004 28.4553 74.6061C28.7081 74.9854 29.0874 75.3647 29.4667 75.6175C29.8459 75.9968 30.3516 75.9968 30.8573 75.9968ZM38.6958 77.7668C38.0636 77.7668 37.5579 77.6404 37.0522 77.3875C36.5465 77.1346 36.1672 76.8818 35.788 76.3761L36.9258 74.9854C37.4315 75.6175 37.9372 75.9968 38.5694 75.9968C39.4543 75.9968 39.8336 75.4911 39.8336 74.4797V70.3077H36.673V68.6641H41.8564V74.4797C41.8564 75.6175 41.6036 76.3761 41.0979 76.8818C40.5922 77.5139 39.8336 77.7668 38.6958 77.7668ZM44.0057 68.7905H46.0285V75.9968H50.4534V77.6404H43.8792V68.7905H44.0057ZM57.5333 75.744H53.3612L52.6026 77.6404H50.4534L54.3726 68.7905H56.3954L60.3146 77.6404H58.1654L57.5333 75.744ZM56.9012 74.2268L55.5104 70.8134L54.1198 74.2268H56.9012ZM69.6702 68.7905V77.6404H68.0266L63.6017 72.2041V77.6404H61.5789V68.7905H63.2225L67.6474 74.2268V68.7905H69.6702ZM73.5893 70.4341H70.6816V68.7905H78.3936V70.4341H75.4857V77.6404H73.463V70.4341H73.5893ZM79.5314 68.7905H81.5543V77.6404H79.5314V68.7905ZM89.3926 77.6404L87.6227 75.1118H87.4962H85.7263V77.6404H83.7034V68.7905H87.4962C88.2548 68.7905 89.0134 68.9169 89.5191 69.1698C90.1512 69.4227 90.5305 69.802 90.9097 70.3077C91.1626 70.8134 91.4155 71.3191 91.4155 72.0776C91.4155 72.8362 91.289 73.3419 90.9097 73.8476C90.5305 74.3533 90.1512 74.7326 89.5191 74.9854L91.5419 77.8932H89.3926V77.6404ZM89.3926 71.9512C89.3926 71.4455 89.2662 71.0662 88.887 70.8134C88.5077 70.5605 88.1284 70.4341 87.4962 70.4341H85.8527V73.5947H87.4962C88.1284 73.5947 88.6341 73.4683 88.887 73.2155C89.2662 72.8362 89.3926 72.4569 89.3926 71.9512ZM93.059 68.7905H95.0818V77.6404H93.059V68.7905ZM100.139 77.7668C99.3803 77.7668 98.7482 77.6404 98.1161 77.5139C97.4839 77.2611 96.9782 77.1346 96.4725 76.7554L97.2311 75.2383C97.6103 75.4911 98.1161 75.744 98.6218 75.8704C99.1275 75.9968 99.6331 76.1232 100.139 76.1232C100.771 76.1232 101.15 75.9968 101.403 75.8704C101.656 75.744 101.782 75.4911 101.782 75.2383C101.782 74.9854 101.656 74.859 101.53 74.7326C101.403 74.6062 101.15 74.4797 100.897 74.3533C100.645 74.2269 100.265 74.2269 99.8861 74.1005C99.2539 73.974 98.6217 73.7211 98.2425 73.5947C97.8632 73.4683 97.4839 73.2155 97.1047 72.8362C96.8518 72.4569 96.5989 71.9512 96.5989 71.4455C96.5989 70.9398 96.7253 70.4341 96.9782 70.0548C97.231 69.6755 97.7367 69.2963 98.2425 69.0434C98.7482 68.7906 99.5068 68.6641 100.265 68.6641C100.771 68.6641 101.403 68.7905 101.909 68.917C102.415 69.0434 102.92 69.2962 103.299 69.5491L102.667 71.0662C101.909 70.5605 101.024 70.3077 100.265 70.3077C99.6332 70.3077 99.2539 70.4341 99.0011 70.5605C98.7482 70.6869 98.6218 70.9398 98.6218 71.3191C98.6218 71.5719 98.7482 71.8248 99.1275 71.9512C99.5067 72.0776 99.886 72.204 100.645 72.3305C101.277 72.4569 101.909 72.7098 102.288 72.8362C102.667 72.9626 103.047 73.2154 103.426 73.5947C103.679 73.974 103.932 74.3533 103.932 74.9854C103.932 75.4911 103.805 75.9968 103.552 76.3761C103.3 76.7554 102.794 77.1346 102.288 77.3875C101.656 77.6404 101.024 77.7668 100.139 77.7668ZM113.54 68.7905V77.6404H111.517V73.974H107.472V77.6404H105.449V68.7905H107.472V72.3305H111.517V68.7905H113.54ZM127.321 77.6404V72.3305L124.666 76.7554H123.781L121.126 72.4569V77.6404H119.229V68.7905H120.873L124.16 74.3533L127.447 68.7905H129.09V77.6404H127.321ZM137.182 75.744H133.01L132.251 77.6404H130.102L134.021 68.7905H136.044L139.963 77.6404H137.814L137.182 75.744ZM136.55 74.2268L135.159 70.8134L133.768 74.2268H136.55ZM146.664 77.6404L144.894 75.1118H144.767H142.997V77.6404H140.975V68.7905H144.767C145.526 68.7905 146.284 68.9169 146.79 69.1698C147.422 69.4227 147.802 69.802 148.181 70.3077C148.434 70.8134 148.687 71.3191 148.687 72.0776C148.687 72.8362 148.56 73.3419 148.181 73.8476C147.802 74.3533 147.422 74.7326 146.79 74.9854L148.813 77.8932H146.664V77.6404ZM146.664 71.9512C146.664 71.4455 146.537 71.0662 146.158 70.8134C145.779 70.5605 145.399 70.4341 144.767 70.4341H143.124V73.5947H144.767C145.399 73.5947 145.905 73.4683 146.158 73.2155C146.537 72.8362 146.664 72.4569 146.664 71.9512ZM153.617 74.2268L152.479 75.4911V77.7668H150.456V68.917H152.479V73.089L156.399 68.917H158.674L155.008 72.8362L158.927 77.7668H156.525L153.617 74.2268ZM165.248 75.744L166.007 77.6404H168.156L164.237 68.7905H162.214L158.295 77.6404H160.444L161.203 75.744H165.248ZM164.616 74.2268H161.835L163.226 70.8134L164.616 74.2268ZM176.374 75.9968V77.6404H168.662V76.2497L173.592 70.3077H168.788V68.6641H176.247V70.0548L171.443 75.9968H176.374ZM177.638 68.7905H179.661V77.6404H177.638V68.7905Z" fill="url(#paint1_linear_9_503)"/>
<defs>
<linearGradient id="paint0_linear_9_503" x1="165.132" y1="17.1005" x2="193.978" y2="61.6263" gradientUnits="userSpaceOnUse">
<stop stop-color="#00366E"/>
<stop offset="0.5" stop-color="#005392"/>
<stop offset="1" stop-color="#00366E"/>
</linearGradient>
<linearGradient id="paint1_linear_9_503" x1="46.4232" y1="58.1881" x2="139.473" y2="77.4215" gradientUnits="userSpaceOnUse">
<stop stop-color="#00366E"/>
<stop offset="0.5" stop-color="#005392"/>
<stop offset="1" stop-color="#00366E"/>
</linearGradient>
</defs>
</svg>
